<svg width="541" height="355" xmlns="http://www.w3.org/2000/svg"><defs><linearGradient x1="-3.017%" y1="50.256%" x2="96.983%" y2="50.256%" id="a"><stop stop-color="gray" stop-opacity=".25" offset="0%"/><stop stop-color="gray" stop-opacity=".12" offset="54%"/><stop stop-color="gray" stop-opacity=".1" offset="100%"/></linearGradient></defs><g fill="none" fill-rule="evenodd"><path d="M279.795 63.703c-34.168 5.786-68.287 3.306-101.11-.302-32.822-3.608-65.563-8.32-99.745-6.9-21.988.912-46.476 5.278-61.829 17.969C2.333 86.675.03 103.146.001 118.015c-.038 11.184.929 22.756 8.838 31.666 5.495 6.18 13.955 10.608 20.327 16.313 22.17 19.815 15.43 51.015.88 77.543-6.826 12.445-15.175 24.685-19.824 37.423-4.648 12.738-5.266 26.388 3.054 36.776 8.244 10.3 24.191 16.106 40.818 19.114 33.77 6.113 71.394 2.318 107.797-2.826 80.567-11.423 160.3-29.233 239.862-47 29.438-6.577 59.005-13.184 87.365-22.665 15.75-5.277 31.788-11.845 41.962-22.07 12.925-12.954 13.251-30.672.794-41.261-20.901-17.752-68.21-13.813-84.377-34.108-8.895-11.175-5.022-26.35 2.058-39.755 15.181-28.75 44.523-57.153 40.722-85.815-2.624-19.671-22.64-35.95-49.468-40.192-28.121-4.443-64.237 3.983-80.428 23.778-16.646 20.396-50.416 33.643-80.586 38.767z" fill="#FF8A88" opacity=".1"/><path fill="#565661" d="M172 172h136v32H172z"/><path fill="#000" opacity=".1" d="M172 172h136v32H172z"/><path fill="#BCBEC9" d="M188.984 205L190 289.004 176.078 322 175 205z"/><path fill="#565661" d="M173 179l133 .821V204H173z"/><path fill="#BCBEC9" d="M295 205l11 1.6V321l-11-34.992z"/><path fill="#EFEFF0" d="M310 175h64v135h-64z"/><path fill="#565661" d="M315 177h54v105h-54z"/><path fill="#000" opacity=".1" d="M315 177h54v105h-54z"/><path fill="#565661" d="M315 180h54v23h-54zM315 204h54v50h-54zM315 257h54v50h-54z"/><path fill="#000" opacity=".1" d="M315 257h54v50h-54z"/><ellipse fill="#565661" cx="317.5" cy="313.5" rx="3.5" ry="4.5"/><ellipse fill="#565661" cx="365.5" cy="314.5" rx="3.5" ry="4.5"/><path fill="#EFEFF0" d="M171.982 323H177l-1.38-148H168zM306 174v147h4V175.175z"/><path fill="#EFEFF0" d="M176 200v6h130v-4.36z"/><path fill="#FFF" d="M184.93 164h165.953L375 171.595V176l-207-1.517V170z"/><path fill="#BCBEC9" d="M168 170l207 1.86V177l-207-1.77z"/><path d="M185.948 225l-.862-.154v-.128c-.026-.241-.056-.477-.086-.718.353.333.69.667 1 1h-.052z" fill="url(#a)"/><path d="M165.93 299.89a22.966 22.966 0 0 1 14.869 1.56c-.409 3.023-.813 6.148.053 9.067.604 2.054 1.815 3.913 2.073 6.055a3.558 3.558 0 0 1 2.798 2.484c.186.561.28 1.15.277 1.741a9.337 9.337 0 0 1-.273 2.172 2.183 2.183 0 0 1-2.335 1.956c-3.766.43-7.459-1.062-10.962-2.524l-6.812-2.846c-.798-.333-1.6-.67-2.364-1.08a12.97 12.97 0 0 1-3.79-3.116 1.739 1.739 0 0 1-.453-.822c-.127-.86.876-1.374 1.513-1.956.187-.177.35-.378.487-.597.754-1.144.827-2.724 1.28-4.073 1.07-3.204 4.378-5.268 5.546-8.393a6.45 6.45 0 0 0 .17-.518" fill="#A26565"/><path d="M186 320.48a10.764 10.764 0 0 1-.272 2.335c-.123 1.27-1.159 2.202-2.336 2.104-3.766.463-7.459-1.141-10.962-2.714l-6.812-3.062c-.798-.358-1.6-.72-2.364-1.162a13.224 13.224 0 0 1-3.79-3.351 1.914 1.914 0 0 1-.453-.884c-.127-.926.876-1.478 1.513-2.104.187-.191.35-.407.487-.642 1.878.437 4.208 1.715 5.644 2.21a16.46 16.46 0 0 1 4.106 1.856c1.79 1.242 3.08 3.157 4.598 4.735 1.518 1.578 3.479 3.014 5.595 2.82a8.792 8.792 0 0 0 3.183-1.19l1.863-.952z" fill="#000" opacity=".1"/><path d="M176.783 251.748c.25.9-.069 1.866-.8 2.423-.616.392-1.411.34-2.023.766-.757.547-.865 1.633-.997 2.573-.47 3.232-2.028 6.164-3.359 9.134-1.331 2.97-2.455 6.213-1.966 9.44.334 2.19 1.378 4.526.4 6.498-.24.485-.598.916-.87 1.386-1.341 2.307-.579 5.229-.63 7.914.019.298-.045.595-.184.857a2.31 2.31 0 0 1-.743.591 4.097 4.097 0 0 0-1.605 3.116c-.04 1.22.104 2.44.424 3.615.052.475.255.918.578 1.26.375.255.817.384 1.266.369 2.955.246 5.854.972 8.59 2.151 1.782.766 3.513 1.725 5.409 2.094.37.118.772.074 1.11-.122.239-.221.403-.514.47-.838.73-2.471 1.468-5.02 1.219-7.589-.108-1.104-.395-2.185-.47-3.29-.33-4.361 2.535-8.296 3.443-12.6.41-1.937.41-3.944.7-5.901.791-5.365 3.66-10.177 4.766-15.483.154-.99.393-1.962.715-2.908.823-2.054 2.728-3.721 2.77-5.945a2.37 2.37 0 0 0-.357-1.386 3.026 3.026 0 0 0-1.68-.97 55.854 55.854 0 0 0-7.784-1.618 14.325 14.325 0 0 0-3.66-.262 10.57 10.57 0 0 0-4.478 1.629c-1.816 1.153-.65 1.43-.254 3.096z" fill="#454B69"/><path d="M176.783 251.748c.25.9-.069 1.866-.8 2.423-.616.392-1.411.34-2.023.766-.757.547-.865 1.633-.997 2.573-.47 3.232-2.028 6.164-3.359 9.134-1.331 2.97-2.455 6.213-1.966 9.44.334 2.19 1.378 4.526.4 6.498-.24.485-.598.916-.87 1.386-1.341 2.307-.579 5.229-.63 7.914.019.298-.045.595-.184.857a2.31 2.31 0 0 1-.743.591 4.097 4.097 0 0 0-1.605 3.116c-.04 1.22.104 2.44.424 3.615.052.475.255.918.578 1.26.375.255.817.384 1.266.369 2.955.246 5.854.972 8.59 2.151 1.782.766 3.513 1.725 5.409 2.094.37.118.772.074 1.11-.122.239-.221.403-.514.47-.838.73-2.471 1.468-5.02 1.219-7.589-.108-1.104-.395-2.185-.47-3.29-.33-4.361 2.535-8.296 3.443-12.6.41-1.937.41-3.944.7-5.901.791-5.365 3.66-10.177 4.766-15.483.154-.99.393-1.962.715-2.908.823-2.054 2.728-3.721 2.77-5.945a2.37 2.37 0 0 0-.357-1.386 3.026 3.026 0 0 0-1.68-.97 55.854 55.854 0 0 0-7.784-1.618 14.325 14.325 0 0 0-3.66-.262 10.57 10.57 0 0 0-4.478 1.629c-1.816 1.153-.65 1.43-.254 3.096z" fill="#000" opacity=".05"/><path fill="#565661" d="M168 325h-4.118l-2.694-55.601-.188-3.162 3.5-1.237.237 3.361z"/><path fill="#000" opacity=".1" d="M164 266.82l-2.849 1.18-.151-3.594 2.81-1.406z"/><path fill="#565661" d="M219 334.975l-6.747.82-31.082-70.861-8.381-.617-14.721 4.316L155.206 353h-6.747l2.657-87.45-16.155.415-28.828 72.088H100l30.32-84.25 1.17-3.247L176.673 249l11.263 6.344.144.366z"/><path d="M188 257.044a1578.553 1578.553 0 0 0-19.528 6.452s-9.071 3.383-12.914 0a5.708 5.708 0 0 0-1.604-.945c.499.38 1.037.698 1.604.945L131 255.036l1.15-3.403L176.743 250l11.115 6.66.142.384z" fill="#000" opacity=".1"/><path d="M143.005 243.155l18.22-4.155s43.536 8.311 46.775 11.633c0 0-34.827 7.269-38.673 9.744-3.846 2.474-26.73 5.212-26.322-17.222z" fill="#FFF"/><path d="M243.929 312.815a7.554 7.554 0 0 1-5.304 3.066c-2.106.257-4.295-.262-6.337.305a1.936 1.936 0 0 0-1.456 1.1c-.05.387-.081.776-.092 1.166-.238 1.272-1.941 1.557-3.266 1.548l-5.464-.034c-1.135 0-2.392-.061-3.207-.833a2.31 2.31 0 0 1-.049-3.085 1.97 1.97 0 0 1 .612-.476 1.915 1.915 0 0 1-1.31-1.529 5.58 5.58 0 0 1 .101-2.1c0-1.99.486-5.322 1.912-6.88 1.752-1.937 4.79-4.442 7.434-4.96a5.9 5.9 0 0 1 5.037 1.404c1.252 1.143 2.164 2.933 3.882 3.133.936.114 1.839-.32 2.766-.476 2.158-.273 4.258.815 5.245 2.718.235.471.399.973.486 1.49a6.097 6.097 0 0 1-.99 4.443z" fill="#A26565"/><path d="M243.94 313.2c-1.25 1.625-3.195 2.68-5.344 2.902-2.122.243-4.328-.248-6.387.288-.647.099-1.198.49-1.467 1.041-.05.367-.081.735-.092 1.104-.24 1.203-1.956 1.474-3.291 1.465l-5.507-.032c-1.144 0-2.41-.058-3.232-.788a2.088 2.088 0 0 1-.049-2.92c3.179-.122 6.303 0 9.472-.604 1.286-.24 2.553-.555 3.854-.721 2.816-.37 5.814-.054 8.4-1.154 2.157-.901 3.702-2.735 4.617-4.781.264 1.463-.084 2.964-.973 4.2z" fill="#000" opacity=".1"/><path d="M229.407 306.19c-1.91 1.502-4.15 2.674-6.556 2.8-2.407.126-4.962-.969-6.141-3.091-1.724-3.116-.196-7.449-2.307-10.308-.659-.896-1.61-1.531-2.307-2.398-.697-.868-1.098-2.171-.477-3.092-.75.29-1.542-.446-1.762-1.231-.22-.785-.081-1.628-.215-2.423-.349-2.108-2.388-3.46-3.367-5.33-.979-1.87-.845-4.299-.955-6.513a24.922 24.922 0 0 0-5.635-14.708c-.65-.785-1.48-1.584-2.493-1.545.177-1.774-.988-3.47-2.497-4.362-1.51-.891-3.305-1.192-5.052-1.366-17.636-1.764-36.012 4.89-52.85-.708-4.684-1.555-9.202-4.158-12.067-8.238a14.567 14.567 0 0 1-2.526-10.893v-.068c.663-3.44 2.454-4.289 5.42-5.859a64.544 64.544 0 0 1 10.692-4.55c7.163-2.273 14.875-3.092 22.268-1.425 3.452.785 6.78 2.084 10.238 2.845 1.361.3 2.732.513 4.112.693 2.144.27 4.297.45 6.456.702a96.464 96.464 0 0 1 20.276 4.628c2.45.843 4.9 1.808 7.006 3.334a15.787 15.787 0 0 1 6.227 10.4c.2 1.424.205 2.907.51 4.288.29 1.16.674 2.295 1.147 3.392a228.036 228.036 0 0 1 9.976 31.498c.145.798.414 1.566.797 2.278.611 1.003 1.662 1.677 2.278 2.68 1.433 2.365.053 5.665 1.323 8.126.44.853 1.17 1.527 1.61 2.38 1.432 2.796-.684 6.14-3.129 8.063z" fill="#454B69"/><path d="M205.692 249.824a8.405 8.405 0 0 0 1.695-2.104c.46-.806.643-1.773.514-2.72.369 2.429-.305 4.91-1.816 6.691-1.172 1.352-3.371 2.678-5.085 2.215.243-1.547 3.604-3.04 4.692-4.082zM173.952 226.989c-.293.994-1.09 1.78-2.12 2.09a9.22 9.22 0 0 1-3.147.352h-.955c-12.53-.265-25.194-2.922-37.433-.388-1.475.29-2.922.698-4.326 1.218A19.77 19.77 0 0 0 121 233v-.064c.664-3.24 2.454-4.04 5.42-5.518a66.756 66.756 0 0 1 10.677-4.245c7.163-2.141 14.875-2.912 22.266-1.342 3.453.74 6.781 1.963 10.238 2.68a49.95 49.95 0 0 0 4.112.652c.267.572.35 1.208.239 1.826z" fill="#000" opacity=".1"/><path d="M174.96 225.458a3.234 3.234 0 0 1-2.144 2.214 8.833 8.833 0 0 1-3.183.367h-.966c-12.673-.28-25.48-3.088-37.86-.41a27.929 27.929 0 0 0-4.375 1.283 19.903 19.903 0 0 0-5.24 3.088c-.37-1.016-.739-2.034-1.106-3.054-.444-1.216.966-1.486 1.236-2.576.179-.738-.125-1.578-.28-2.364a4.12 4.12 0 0 1-.077-.584c-.087-1.742.536-2.745 1.966-3.686 4.24-2.798 9.413-4.718 14.252-6.16a35.29 35.29 0 0 1 7.92-1.535c3.806-.222 7.607.483 11.312 1.375 4.554 1.124 9.06 2.61 13.098 4.989 1.98 1.153 3.912 2.6 4.979 4.655.426.723.591 1.569.468 2.398z" fill="#A26565"/><path d="M174.96 225.411a3.225 3.225 0 0 1-2.143 2.204 8.865 8.865 0 0 1-3.18.365h-.966a21.122 21.122 0 0 0-13.999-3.36c-1.573.187-3.147.551-4.72.407-3.182-.288-5.76-2.563-8.593-4.018a18.12 18.12 0 0 0-19.999 2.698l-.275.24a4.084 4.084 0 0 1-.077-.58c-.087-1.734.536-2.732 1.965-3.669 4.238-2.784 9.408-4.695 14.244-6.13a35.408 35.408 0 0 1 7.917-1.527c3.804-.22 7.603.48 11.305 1.368 4.552 1.119 9.056 2.598 13.091 4.964 1.965 1.167 3.895 2.607 4.962 4.652.426.72.591 1.561.468 2.386z" fill="#000" opacity=".1"/><path d="M186.057 172.231l-.067.172c-1.065 2.784-3.024 5.136-4.28 7.847-1.583 3.435-1.973 7.287-2.325 11.062-.304 3.233-.603 6.486-.36 9.73.608 7.99 4.483 15.568 5.52 23.406.255 1.81.32 3.642.194 5.466-.085 1.154-.294 2.395-1.055 3.248-.76.852-2.24 1.188-3.057.368.366-.704.737-1.403 1.107-2.107-2.173-1.701-5.444-.48-7.983-1.543-1.117-.48-2.011-1.341-2.948-2.113a20.567 20.567 0 0 0-15.401-4.531c-1.55.191-3.1.555-4.65.412-3.134-.293-5.673-2.559-8.464-4.01a17.68 17.68 0 0 0-19.7 2.687c-.665.623-1.559 1.351-2.377.958a1.987 1.987 0 0 1-.737-.81c-3.114-5.36-.822-12.272 2.506-17.494 3.328-5.222 7.736-10.036 9.106-16.087a6.046 6.046 0 0 0 .175-2.237c-.128-.862-.56-1.643-.798-2.476-.419-1.476-.224-3.038-.105-4.566a42.439 42.439 0 0 0-3.243-19.689c-.76-1.787-1.664-3.598-1.664-5.538 0-3.056 2.173-5.59 3.97-8.048 2.069-2.826 3.804-5.954 6.424-8.278 2.482-2.208 6.077-3.56 9.149-2.438a56.622 56.622 0 0 1 15.957-1.567c1.854.087 3.77.283 5.397 1.188 1.74.959 2.99 2.664 4.702 3.684 1.25.752 2.691 1.107 4.051 1.634a16.785 16.785 0 0 1 8.73 7.866c1.902 3.713 2.378 7.98 2.796 12.14.4 3.913.78 7.98-.57 11.664z" fill="#FF8A88"/><path d="M178.754 200.536c.632 8.01 4.652 15.607 5.727 23.464-2.15-1.772-5.145-3.554-5.544-5.614-.444-2.228-1.865-5.148-2.101-7.4-.237-2.252 1.386-5.004-.316-6.55-.829-.754 1.376-.543.567-1.316-1.82-1.724-2.269-4.38-2.382-6.843-.193-4.36.375-8.77-.45-13.058-.492-2.646-1.523-5.167-2.347-7.736-.957-2.992-1.647-6.056-2.338-9.125a62.395 62.395 0 0 1-1.48-8.288c-.212-2.401-.113-4.947.987-7.136 1.1-2.19 3.324-3.967 5.82-3.934 8.346.106 6.905 11.123 8.74 16.213.735 2.026 1.727 3.986 2.126 6.099.146.828.225 1.666.237 2.507-1.105 2.79-3.137 5.148-4.44 7.866-1.642 3.443-2.046 7.304-2.411 11.088-.336 3.251-.646 6.512-.395 9.763z" fill="#000" opacity=".1"/><path d="M184.083 163.42c.71 2.048 1.668 4.027 2.054 6.162.643 3.575-.353 7.373.729 10.837.281.739.517 1.496.705 2.265.186 1.101-.029 2.227-.029 3.347 0 1.805.558 3.551 1.053 5.283a95.942 95.942 0 0 1 3.312 18.026c.079 1.64.333 3.267.758 4.851.2.537.371 1.084.514 1.64a8.63 8.63 0 0 1 .09 2.246c-.128 2.377-.39 4.763-.128 7.13.262 2.368 1.11 4.77 2.859 6.355-1.563.345-3.216.69-4.741.18-2.144-.713-3.43-2.91-4.522-4.91-1.382-2.55-6.633-4.85-7.176-7.717-.424-2.246-1.796-5.195-2.025-7.475-.229-2.28 1.334-5.05-.31-6.612-.795-.762 1.335-.553.548-1.33-1.753-1.741-2.187-4.424-2.296-6.917-.186-4.4.357-8.853-.434-13.185-.476-2.673-1.472-5.22-2.268-7.82-.924-3.017-1.591-6.112-2.259-9.217a64.953 64.953 0 0 1-1.429-8.372c-.205-2.426-.114-5.002.953-7.214 1.067-2.212 3.216-4.002 5.623-3.973 8.028.146 6.647 11.279 8.419 16.42z" fill="#FF8A88"/><path d="M160.68 165.72c.875 1.022 1.998 2.144 3.32 1.945a.72.72 0 0 1-.98.232 2.1 2.1 0 0 1-.735-.845l-1.892-3.188c-.25-.414-1.964-2.828-2.385-1.436-.166.591 2.246 2.795 2.672 3.292zM160 173a3.82 3.82 0 0 0-1.078-2.477 6.015 6.015 0 0 0-1.996-1.234c-1.813-.763-3.959-1.378-5.926-1.278.715 1.07 3.011 1.709 4.162 2.313A147.29 147.29 0 0 1 160 173zM166.629 192.226c-.345 2.486-2.44 4.37-4.56 5.825-2.12 1.457-4.5 2.71-5.886 4.816-.96 1.456-1.39 3.146-2.205 4.665-.9 1.675-2.245 3.083-3.32 4.656-1.075 1.572-1.915 3.451-1.585 5.315a.62.62 0 0 0 .23.447c.21.086.45.06.635-.068 2.18-1.107 3.04-3.636 3.955-5.825a66.493 66.493 0 0 1 3.24-6.467c.54-.97 1.135-2.029 2.14-2.568a19.159 19.159 0 0 1 2.11-.713 7.068 7.068 0 0 0 2.605-1.986c2.73-3.161 4.155-7.193 4-11.315-.03-.87-.08-5.054-1.424-3.763-1.346 1.292.295 5.292.065 6.981z" fill="#000" opacity=".1"/><path d="M167.91 98.46c4.087 1.792 7.605 5.735 7.477 10.202-.11 4.693-4.017 9.113-2.672 13.61.78 2.608 3.128 4.357 4.987 6.34 7.078 7.531 7.063 20.676-.038 28.193-2.72 2.867-6.213 4.907-9.09 7.645-10.139 9.605-10.571 26.22-5.143 39.116A62.974 62.974 0 0 1 150.777 205c-1.991 0-4.43-.34-5.152-2.208-.666-1.725.475-4.057-.837-5.332-.618-.598-1.545-.679-2.377-.817-5.352-.87-9.745-5.166-11.75-10.226-2.007-5.06-1.902-10.756-.752-16.08.818-3.846 2.097-8.08.2-11.52-2.377-4.33-9.212-6.155-9.108-11.105.086-4.057 4.844-6.03 7.544-9.046 4.982-5.552 2.61-14.168 2.6-21.651 0-6.585 2.291-13.38 7.169-17.766 7.254-6.58 21.224-4.444 29.595-.789z" fill="#A26565"/><path d="M174.045 116.56c.866-2.521 2.12-5.068 2.183-7.686.01-.283.001-.567-.024-.85-.966 2.892-2.448 5.697-2.159 8.537zM179.301 152.523c-2.75 2.882-6.285 4.933-9.195 7.686-5.194 4.886-7.863 11.577-8.531 18.673 1.24-5.284 3.746-10.15 7.762-13.932 2.885-2.738 6.444-4.78 9.195-7.686a20.4 20.4 0 0 0 5.362-13 19.503 19.503 0 0 1-4.593 8.259zM152.1 200.96c-2.014 0-4.481-.345-5.212-2.224-.674-1.729.48-4.073-.847-5.36-.625-.601-1.567-.683-2.404-.822-5.41-.87-9.854-5.193-11.884-10.276-1.495-3.756-1.818-7.854-1.442-11.9-.039.16-.073.318-.106.481-1.145 5.352-1.265 11.083.76 16.17 2.024 5.088 6.473 9.406 11.883 10.276.856.14 1.799.226 2.405.821 1.341 1.288.173 3.632.846 5.362.731 1.878 3.198 2.248 5.213 2.224a64.14 64.14 0 0 0 12.802-1.441 42.907 42.907 0 0 1-1.553-4.29 63.904 63.904 0 0 1-10.46.98z" fill="#000"/><path d="M168.014 178.873c1.206.764 2.514-2.146 1.767-2.873-.2.189-1.953 2.767-1.767 2.873zM172 241c1.223-.53 2.522-1.062 3.32-2.336.66-1.024 1.203-5.091-.193-3.143-1.185 1.673-1.744 3.876-3.127 5.479zM186.463 237.514c-.136 1.202-.39 2.45-1.039 3.315-.12.163-.389.265-.424.046.726-.506 1.4-1.129 2.007-1.854 1.315-1.705 1.494-5.906-.51-7.021-.019 1.843.18 3.64-.034 5.514z" fill="#000" opacity=".1"/><path d="M205 230.614s-13.717-5.102-18.677-4.576c-4.959.526 5.617 7.926 5.617 7.926l6.322 4.036s3.867-1.373 4.123-1.478c.256-.105 2.615-5.908 2.615-5.908z" fill="#454B69"/><path d="M109 172.23s10.237-5.861 23.748 1.422c13.51 7.283 15.762 50.142 15.762 50.142s-5.526 43.665 15.783 33.95c0 0 38.89-11.926 42.785-9.299 0 0 3.687 0-3.683 1.617-7.37 1.617-35.842 10.526-35.842 10.526s-9.205 3.177-13.103 0c-3.899-3.177-14.947.408-16.383-21.432a375.286 375.286 0 0 0-5.118-41.043l-3.798-11.118L109 172.229z" fill="#565661"/><path d="M107.964 240.89s4.54-44.883-2.904-61.076c-6.475-14.112 18.565-7.513 25.098-5.59 1.011.3 1.893.926 2.507 1.778 3.872 5.408 17.762 27.08 13.667 56.078 0 0-1.65 25.825 8.668 29.92l-31.791-10.17a91.932 91.932 0 0 0-7.84-2.11c-3.369-.76-8.857-2.918-7.405-8.83z" fill="#FFF"/><path fill="#565661" d="M333 325h4.118l2.699-55.601.183-3.162-3.5-1.237-.232 3.361z"/><path fill="#000" opacity=".1" d="M336 269.82l2.853 1.18.147-3.594-2.814-1.406z"/><path d="M298.887 303.215a8.914 8.914 0 0 1-.6 2.195c-.302.921-.953 1.7-1.824 2.186a4.999 4.999 0 0 1-1.844.35c-2.354.134-4.844.1-6.868-1.05a12.39 12.39 0 0 1-2.354-1.884 104.188 104.188 0 0 1-12.356-14.09c-.615-.849-1.25-1.85-.975-2.876a47.56 47.56 0 0 0 13.38-5.871 6.554 6.554 0 0 1 1.88-.959c1.16-.237 2.354-.28 3.529-.124 1.135.177 1.185.21 1.62 1.438.72 2.075.6 4.313 1.409 6.388a19.559 19.559 0 0 0 1.87 3.279c2.089 3.35 3.693 7.304 3.133 11.018z" fill="#A26565"/><path d="M299 304.309a8.577 8.577 0 0 1-.602 2.152 3.86 3.86 0 0 1-1.832 2.143 5.127 5.127 0 0 1-1.853.343c-2.364.131-4.863.098-6.896-1.03a12.395 12.395 0 0 1-2.364-1.846 102.935 102.935 0 0 1-12.408-13.814c-.617-.832-1.255-1.814-.979-2.82a48.836 48.836 0 0 0 4.598-1.437l.075.052c1.541 1.029 2.66 2.504 3.75 3.951l3.513 4.628a13.871 13.871 0 0 0 2.204 2.49 14.98 14.98 0 0 0 3.408 1.918c1.651.747 3.303 1.494 5.02 2.095 1.108.419 2.986.583 4.366 1.175z" fill="#000" opacity=".1"/><path d="M301.782 252.163a14.452 14.452 0 0 1-1.183 2.282 98.212 98.212 0 0 0-10.088 23.862c-.653-.148-1.022.75-1.017 1.435.005.684 0 1.545-.625 1.793-.184.072-.392.072-.572.153-.398.182-.511.694-.568 1.134l-.558 4.142c-.194 1.435-.365 2.99.331 4.257a6.774 6.774 0 0 0 1.831 1.913l9.236 7.366c.379.3.847.621 1.302.454 1.036-.383.118-2.258.946-3.018.549-.521 1.42-.13 2.181-.191.994-.077 1.746-1 1.997-1.971.176-.989.194-2 .052-2.994a2.744 2.744 0 0 1 .151-1.344c.283-.453.671-.83 1.131-1.095 3.254-2.403 5.117-6.28 4.973-10.35a5.8 5.8 0 0 1 .067-1.832 4.84 4.84 0 0 1 .856-1.512c3.355-4.587 6.151-9.566 8.929-14.535 1.599-2.87 3.227-5.783 3.785-9.016a.845.845 0 0 0-.057-.746.827.827 0 0 0-.624-.402 31.888 31.888 0 0 0-4.23-1.023c-4.349-.89-8.546-2.263-12.776-3.583-4.23-1.32-4.197 1.368-5.47 4.821z" fill="#454B69"/><path fill="#565661" d="M281 336.975l6.752.82 31.077-70.861 8.381-.617 14.726 4.316L344.794 355h6.747l-2.657-87.45 16.155.415 28.828 72.088H400l-30.32-84.25-1.165-3.247L323.326 251l-11.263 6.344-.144.366z"/><path d="M312 257.044a1578.553 1578.553 0 0 1 19.528 6.452s9.071 3.383 12.914 0a5.708 5.708 0 0 1 1.604-.945 7.767 7.767 0 0 1-1.604.945l24.558-8.46-1.136-3.403L323.271 250l-11.115 6.66-.156.384z" fill="#000" opacity=".1"/><path d="M357.995 244.155L339.775 240s-43.536 8.311-46.775 11.633c0 0 34.827 7.269 38.673 9.744 3.846 2.474 26.73 5.212 26.322-17.222z" fill="#FFF"/><path d="M290.517 309.173c-1.118 2.177-3.87 2.79-6.29 2.825a26.028 26.028 0 0 1-9.83-1.796c-1.79-.703-3.507-1.608-5.355-2.123-2.752-.772-5.805-.707-8.224-2.256a9.815 9.815 0 0 1-3.091-3.429c-.14-.242-.276-.495-.402-.752-1.156-2.3-1.693-4.977-1.05-7.461.644-2.484 2.98-5.22 5.69-5.18 3.217.049 7.053 1.607 10.159 2.414 3.87.99 7.74 2.132 11.16 4.225 2.864 1.762 5.394 4.29 6.744 7.378.26.595.473 1.21.639 1.84.42 1.425.517 3.013-.15 4.315z" fill="#A26565"/><path d="M289.524 309.27c-1.095 2.102-3.793 2.695-6.163 2.728-3.29.041-6.56-.547-9.632-1.734-1.754-.678-3.437-1.552-5.248-2.05-2.697-.744-5.688-.682-8.058-2.178a9.526 9.526 0 0 1-3.03-3.31c-.137-.234-.27-.478-.393-.726.474.038.91.086 1.147.11 2.91.282 5.689 1.352 8.466 2.159a47.22 47.22 0 0 0 11.851 1.863c2.845.081 5.812-.129 8.296-1.529a21.713 21.713 0 0 1 2.304-1.275c.254.575.463 1.17.626 1.777.393 1.376.488 2.91-.166 4.165z" fill="#000" opacity=".1"/><path d="M310.022 217.866c-6.21-1.03-12.535-1.281-18.831-1.533l-7.7-.31a3.452 3.452 0 0 0-1.62.199c-.446.29-.869.613-1.266.967-.774.532-1.763.59-2.694.643a132.567 132.567 0 0 0-19.663 2.583c-3.344.692-6.817 1.596-9.33 3.932-2.656 2.471-3.821 6.239-3.912 9.886-.09 3.646.855 7.23 1.854 10.732a49.447 49.447 0 0 1 2.087 12.99 24.603 24.603 0 0 0 .139 3.662 17.68 17.68 0 0 0 1.008 3.385l3.516 9.504c.31.832.616 1.659.955 2.471.34.813.664 1.451.955 2.215.43 1.045.77 2.128 1.109 3.207l2.34 7.443.306.967c.846 2.68 1.71 5.407 3.306 7.71 1.595 2.302 4.065 4.159 6.84 4.3.896-.035 1.793-.01 2.685.072.761.188 1.5.459 2.203.807a16.622 16.622 0 0 0 6.578 1.301c2.078 0 4.385-.585 5.512-2.355.621-.967.784-2.157.956-3.298.3-2.293.592-4.687-.177-6.863-.478-1.301-1.28-2.418-1.834-3.7-.774-1.746-1.027-3.676-1.529-5.518a21.114 21.114 0 0 0-6.353-10.234 102.009 102.009 0 0 1-2.389-13.243 11.778 11.778 0 0 0-.578-2.901c-.559-1.451-1.691-2.627-2.164-4.107-.444-1.373-.31-2.96-1.118-4.144 6.721 1.871 13.376 1.45 20.355 1.34a54.94 54.94 0 0 0 6.688-.388 20.77 20.77 0 0 1 3.134-.338c2.16 0 4.185.967 6.167 1.818 5.604 2.419 11.508 4.32 17.594 4.58 6.282.266 12.492-1.228 18.63-2.708 2.7-.653 5.504-1.359 7.644-3.153 2.14-1.795 3.344-5.03 2.026-7.492-1.004-1.852-3.082-2.762-5.021-3.535-5.37-2.148-10.768-4.242-15.941-6.84-7.902-3.897-13.81-12.603-22.467-14.054z" fill="#454B69"/><path d="M299.472 196.753c-.722 1.686-1.937 3.064-2.834 4.65-1.5 2.61-1.995 5.75-1.38 8.748.656 3.004 2.567 5.51 5.175 6.786a12.22 12.22 0 0 0 3.588.932c1.62.213 3.344.258 4.775-.585a7.303 7.303 0 0 0 2.544-2.865c1.237-2.23 1.941-4.744 2.585-7.247 1.191-4.62 2.208-9.358 2.06-14.151-.05-1.65-.353-3.51-1.623-4.461a5.193 5.193 0 0 0-2.134-.754l-6.068-1.17c-1.173-.227-3.22-1.154-4.236-.242-1.017.912-1.095 3.608-1.27 4.872-.276 1.869-.446 3.767-1.182 5.487zM376.456 176.602l-1.703 14.304a65.89 65.89 0 0 0-.607 7.695c0 1.435.044 3.027-.904 4.1a3.731 3.731 0 0 1-1.698 1.024c-2.07.643-4.325.07-6.3-.816-1.156-.494-2.336-1.211-2.86-2.364a5.885 5.885 0 0 1-.37-2.507c0-8.532.805-17.43 5.254-24.7a5.383 5.383 0 0 1 1.565-1.81c1.234-.791 2.849-.569 4.246-.139.86.263 3.18.554 3.728 1.32.548.768-.232 2.91-.35 3.893z" fill="#A1616A"/><circle fill="#A1616A" cx="332.5" cy="109.5" r="17.5"/><path d="M327.64 136.02a9.489 9.489 0 0 1-1.07 3.98 747.168 747.168 0 0 0 26.43-4.657c-2.916-1.551-5.12-4.234-6.132-7.462a21.763 21.763 0 0 1-.778-5.319 63.639 63.639 0 0 1 .158-8.562c-3.075.333-5.988 1.527-8.919 2.552a85.615 85.615 0 0 1-8.982 2.602 95.375 95.375 0 0 1-4.42.896c-1.73.318-2.562.313-1.36 1.885 3.224 4.2 5.526 8.468 5.074 14.085z" fill="#A1616A"/><path d="M332.855 134.299c-2.29.339-4.69.721-6.518 2.126a24.494 24.494 0 0 0-1.982 1.887c-3.63 3.493-8.755 4.898-13.162 7.364a5.778 5.778 0 0 0-1.87 1.457c-.483.665-.729 1.51-1.235 2.17-.588.764-1.519 1.242-1.977 2.088-.458.846-.356 1.744-.405 2.642-.11 1.974-.863 3.847-1.446 5.734-2.676 9.036-1.21 19.114-5.26 27.648a3.9 3.9 0 0 0 2.131 2.208c1.02.363 2.083.59 3.163.673l8.972 1.104c1.283.158 2.642.306 3.814-.224a44.086 44.086 0 0 0-2.261 9.045 44.688 44.688 0 0 1-1.013 5.6c-1.234 4.205-4.339 7.708-8.018 10.102-.463.24-.854.598-1.133 1.037-.482.955.232 2.026.738 2.962 1.47 2.714 1.268 5.973 1.249 9.05-.02 3.078.294 6.456 2.463 8.664 1.283 1.304 3.038 2.011 4.745 2.685l14.035 5.557a49.217 49.217 0 0 0 7.145 2.39c3.698.836 7.54.802 11.335.64a174.07 174.07 0 0 0 7.511-.478 5.884 5.884 0 0 0 2.84-.74 5.26 5.26 0 0 0 1.663-2.237c1.953-4.21 2.609-9.122 5.636-12.648 2.078-2.423 5.304-4.358 5.54-7.526.111-1.577-.598-3.11-.607-4.693 0-1.944 1.027-3.794.964-5.734-.13-3.158-3.134-5.566-3.611-8.691-1.215-7.923 2.844-15.836 5.337-23.457.448-1.362 1.027-2.867 2.348-3.45 1.321-.583 3.182-.278 3.655-1.568 1.19-3.24 1.475-7.038 1.32-10.484-.086-1.992-.8-3.942-.718-5.939.058-1.405.511-2.771.632-4.172.183-2.116-.381-4.219-.964-6.264a9.757 9.757 0 0 0-.753-2.112 10.039 10.039 0 0 0-1.253-1.706l-2.348-2.767c-1.1-1.295-2.261-2.637-3.857-3.292-.516-1.266-2.165-2.14-3.346-2.838a34.419 34.419 0 0 0-3.684-1.792l-13.278-5.81a5.473 5.473 0 0 0-1.576-.507 5.145 5.145 0 0 0-2.343.478c-4.05 1.59-8.279 3.177-12.618 3.818z" fill="#FF8A88"/><path d="M318.61 113.256c-.516-1.828-1.836-3.407-2.035-5.3-.18-1.68.555-3.309.974-4.946.419-1.637.404-3.638-.887-4.726-.214-.186-.487-.353-.565-.628-.156-.49.336-.936.487-1.431.278-.98-.925-2.064-.487-3.005.249-.515.872-.697 1.418-.858 2.085-.623 4.199-2.005 4.652-4.148 1.632.687 3.371-.603 4.623-1.853 1.252-1.25 2.791-2.677 4.516-2.3l-.385.79a12.396 12.396 0 0 1 8.247-.093h-.818c2.35.04 4.63.816 6.523 2.22-.21 0-.23.314-.146.491.682 1.603 2.435 2.451 4.126 2.848 1.018.245 2.124.422 2.869 1.157.745.736.76 2.27-.224 2.623a25.573 25.573 0 0 1 5.656 3.089c.487.358 1.037.843.974 1.47-.07.316-.17.623-.302.917a3.191 3.191 0 0 0 .102 1.57l.541 2.244c.594 2.496 1.062 5.501-.745 7.31a6.744 6.744 0 0 1-1.174 7.923c.29.886.19 1.854-.276 2.66a3.245 3.245 0 0 1-2.16 1.56c.6.942.049 2.285-.896 2.874-.945.588-2.134.593-3.235.49-1.101-.103-2.217-.353-3.318-.186-1.602.25-3.17 1.348-4.715.857a10.564 10.564 0 0 1-1.651-.892c-1.082-.583-2.339-.716-3.537-.98a16.285 16.285 0 0 1-5.714-2.452 6.726 6.726 0 0 1-2.626-2.941c-1.072-2.726.73-6.3-1.164-8.52-1.111-1.295-3.313-1.315-4.555-.207-.619.554-.702 1.721-1.345 2.138a8.449 8.449 0 0 1-2.747.235z" fill="#464353"/><path d="M295.308 250.824a8.405 8.405 0 0 1-1.695-2.104 4.332 4.332 0 0 1-.514-2.72c-.369 2.429.305 4.91 1.816 6.691 1.172 1.352 3.371 2.678 5.085 2.215-.243-1.547-3.604-3.04-4.692-4.082z" fill="#000" opacity=".1"/><path d="M390 175.23s-10.237-5.861-23.748 1.422c-13.51 7.283-15.762 50.142-15.762 50.142s5.526 43.665-15.783 33.95c0 0-38.89-11.926-42.785-9.299 0 0-3.687 0 3.683 1.617 7.37 1.617 35.842 10.526 35.842 10.526s9.205 3.177 13.103 0c3.899-3.177 14.947.408 16.383-21.432a375.286 375.286 0 0 1 5.118-41.043l3.798-11.118L390 175.229z" fill="#565661"/><path d="M392.036 242.89s-4.54-44.883 2.904-61.076c6.475-14.112-18.565-7.513-25.098-5.59a4.756 4.756 0 0 0-2.507 1.778c-3.872 5.408-17.762 27.08-13.667 56.078 0 0 1.65 25.825-8.668 29.92l31.791-10.17a91.932 91.932 0 0 1 7.84-2.11c3.369-.76 8.857-2.918 7.405-8.83z" fill="#FFF"/><ellipse fill="#FF8A88" opacity=".1" cx="475" cy="321.5" rx="46" ry="7.5"/><path fill="#535461" d="M473 178h3v68h-3z"/><path d="M494.991 245.544l-.183 3.017-.263 4.27-.108 1.774-.259 4.269-.113 1.774-.263 4.269-2.97 48.417c-.282 4.313-3.829 7.665-8.11 7.666h-15.446c-4.29-.002-7.838-3.372-8.101-7.694l-2.98-48.422-.258-4.27-.108-1.774-.268-4.269-.108-1.774-.258-4.269-.188-3.017a4.293 4.293 0 0 1 1.14-3.166 4.21 4.21 0 0 1 3.06-1.345h31.588a4.211 4.211 0 0 1 3.07 1.358 4.293 4.293 0 0 1 1.126 3.186z" fill="#565661"/><path fill="#9D9CB5" d="M495 248l-.266 5h-39.468l-.266-5zM494 253l-.26 5h-38.476l-.264-5zM495 260l-.27 5h-38.46l-.27-5z"/><path d="M449.357 202.426C466.754 215.13 474 235 474 235s-20.96-.726-38.362-13.43C418.236 208.864 411 189 411 189s20.965.726 38.357 13.426z" fill="#FF8A88"/><path d="M411 189s21.756 12.19 28.74 22.284C446.722 221.377 474 235 474 235" stroke="#535461" stroke-width="2"/><path d="M460.298 177.59C469.97 184.765 474 196 474 196s-11.678-.414-21.327-7.59C443.024 181.235 439 170 439 170s11.63.41 21.298 7.59z" fill="#FF8A88"/><path d="M439 170s12.088 6.89 15.963 12.593C458.84 188.295 474 196 474 196" stroke="#535461" stroke-width="2"/><path d="M488.05 194.977C477.28 207.125 475 223 475 223s15.188-3.825 25.95-15.977C511.712 194.87 514 179 514 179s-15.178 3.83-25.95 15.977z" fill="#FF8A88"/><path d="M514 179s-14.028 12.454-17.594 21.034C492.84 208.614 475 223 475 223" stroke="#535461" stroke-width="2"/><path d="M267 165.937V167h-33v-.863a11.27 11.27 0 0 0 2.548-1.296c2.843-1.945 4.53-5.08 4.53-8.422a9.79 9.79 0 0 0-.337-2.55c-.809-3.038-3.012-5.563-5.994-6.869h32.028c-2.982 1.306-5.185 3.831-5.993 6.869a9.79 9.79 0 0 0-.332 2.55c-.002 3.34 1.682 6.477 4.524 8.422.634.432 1.313.799 2.026 1.096z" fill="#DFE6F5"/><path d="M266 146a10.549 10.549 0 0 0-5.801 7H240.8a10.549 10.549 0 0 0-5.801-7h31z" fill="#000" opacity=".1"/><path d="M197 141v6.002c0 3.31 2.472 5.998 5.527 5.998h94.941c3.055 0 5.532-2.688 5.532-5.998V141H197z" fill="#DFE6F5"/><path d="M267 166.015V167h-33v-.8c.905-.3 1.761-.703 2.548-1.2h28.426c.634.4 1.313.74 2.026 1.015z" fill="#000" opacity=".1"/><rect fill="#DFE6F5" x="224" y="165" width="54" height="3" rx="1.5"/><path d="M303 73.539c0-1.47-.583-2.88-1.62-3.918A5.521 5.521 0 0 0 297.467 68h-94.94a5.517 5.517 0 0 0-3.91 1.62A5.54 5.54 0 0 0 197 73.54V142h106V73.539z" fill="#474157"/><path d="M301 75.714v58.567a2.7 2.7 0 0 1-.801 1.922 2.756 2.756 0 0 1-1.941.797h-95.516a2.756 2.756 0 0 1-1.94-.797 2.7 2.7 0 0 1-.802-1.922V75.714a2.655 2.655 0 0 1 .366-1.357A2.747 2.747 0 0 1 202.742 73h95.516c1.514 0 2.742 1.215 2.742 2.714z" fill="#4C4C78"/><circle fill="#FFF" cx="251" cy="70" r="1"/><circle fill="#FFF" cx="250.5" cy="147.5" r="3.5"/><path d="M301 75H200c0-1.657 1.228-3 2.742-3h95.516c1.514 0 2.742 1.343 2.742 3z" fill="#C8CAD7"/><circle fill="#EDEDF4" cx="202" cy="74" r="1"/><circle fill="#EDEDF4" cx="205" cy="74" r="1"/><circle fill="#EDEDF4" cx="207" cy="74" r="1"/></g></svg>