<?xml version="1.0" encoding="UTF-8"?>
<svg width="408px" height="392px" viewBox="0 0 408 392" version="1.1" xmlns="http://www.w3.org/2000/svg" xmlns:xlink="http://www.w3.org/1999/xlink">
    <!-- Generator: Sketch 52.5 (67469) - http://www.bohemiancoding.com/sketch -->
    <title>Mask</title>
    <desc>Created with Sketch.</desc>
    <defs>
        <filter x="-2.5%" y="-2.5%" width="104.9%" height="104.9%" filterUnits="objectBoundingBox" id="filter-1">
            <feOffset dx="0" dy="2" in="SourceAlpha" result="shadowOffsetOuter1"></feOffset>
            <feGaussianBlur stdDeviation="2" in="shadowOffsetOuter1" result="shadowBlurOuter1"></feGaussianBlur>
            <feColorMatrix values="0 0 0 0 0   0 0 0 0 0   0 0 0 0 0  0 0 0 0.5 0" type="matrix" in="shadowBlurOuter1" result="shadowMatrixOuter1"></feColorMatrix>
            <feMerge>
                <feMergeNode in="shadowMatrixOuter1"></feMergeNode>
                <feMergeNode in="SourceGraphic"></feMergeNode>
            </feMerge>
        </filter>
    </defs>
    <g id="Page-1" stroke="none" stroke-width="1" fill="none" fill-rule="evenodd">
        <g id="Artboard" transform="translate(-46.000000, -108.000000)" fill="#77B255">
            <g id="Oval" filter="url(#filter-1)" transform="translate(6.000000, 6.000000)">
                <path d="M300.57882,259.082232 C288.325407,267.224749 277.396994,276.737565 267.963451,286.510851 C266.525204,238.437156 254.973928,176.26411 191.272035,145.823099 C178.667554,77.2515504 31.6832234,112.086576 44.831294,118.745548 C71.0368369,131.995541 84.9776422,165.720739 101.840241,183.46667 C131.884885,215.085458 165.292988,217.033321 181.917766,192.27735 C221.192106,217.803406 223.774156,266.216844 222.57373,317.971093 C222.437832,323.690107 222.31326,329.012754 222.31326,333.848435 L222.31326,492.395367 C222.31326,504.897925 267.612383,504.897925 267.612383,492.395367 L267.612383,362.273635 C273.750414,351.469794 291.643568,322.580278 317.781162,302.320245 C335.742265,318.095665 364.688405,313.056138 390.973221,285.389698 C407.83582,267.643766 416.940944,233.929894 443.146487,220.668575 C456.974044,213.669861 298.177967,175.437401 300.57882,259.082232 Z" id="Mask"></path>
            </g>
        </g>
    </g>
</svg>