<svg height="392" width="408" xmlns="http://www.w3.org/2000/svg" xmlns:xlink="http://www.w3.org/1999/xlink"><filter id="a" height="104.9%" width="104.9%" x="-2.5%" y="-2.5%"><feOffset dy="2" in="SourceAlpha" result="shadowOffsetOuter1"/><feGaussianBlur in="shadowOffsetOuter1" result="shadowBlurOuter1" stdDeviation="2"/><feColorMatrix in="shadowBlurOuter1" result="shadowMatrixOuter1" values="0 0 0 0 0 0 0 0 0 0 0 0 0 0 0 0 0 0 0.5 0"/><feMerge><feMergeNode in="shadowMatrixOuter1"/><feMergeNode in="SourceGraphic"/></feMerge></filter><path d="m300.579 259.082c-12.254 8.143-23.182 17.656-32.616 27.429-1.438-48.074-12.99-110.247-76.691-140.688-12.604-68.571-159.589-33.736-146.44-27.077 26.205 13.25 40.146 46.975 57.008 64.72 30.045 31.62 63.453 33.567 80.078 8.811 39.274 25.526 41.856 73.94 40.656 125.694-.136 5.72-.26 11.042-.26 15.877v158.547c0 12.503 45.298 12.503 45.298 0v-130.121c6.138-10.804 24.032-39.694 50.17-59.954 17.96 15.776 46.906 10.736 73.191-16.93 16.863-17.746 25.968-51.46 52.173-64.721 13.828-7-144.968-45.232-142.567 38.413z" fill="#77b255" fill-rule="evenodd" filter="url(#a)" transform="translate(-40 -102)"/></svg>