<svg width="364" height="197" xmlns="http://www.w3.org/2000/svg"><g fill="none" fill-rule="evenodd"><path d="M364 126.525a58.297 58.297 0 0 1-2.18 15.84 57.612 57.612 0 0 1-6.131 14.14c0 16-10.761 29.828-26.38 36.407A53.062 53.062 0 0 1 308.712 197H69.1c-12.807 0-24.675-3.468-34.409-9.377a59.112 59.112 0 0 1-7.9-5.713c-10.818-9.331-17.525-22.227-17.525-36.47A57.797 57.797 0 0 1 0 113.913c0-23.427 13.806-43.572 33.584-52.466a55.395 55.395 0 0 1 8.117-2.913 55.613 55.613 0 0 1 11.095-1.84 55.153 55.153 0 0 1 2.975-.105h.547c1.101 0 2.193.039 3.278.103l.356-.607a84.15 84.15 0 0 1 1.343-2.175 81.99 81.99 0 0 1 2.602-3.864 89.003 89.003 0 0 1 2.975-3.954l.264-.319a86.822 86.822 0 0 1 1.795-2.172c1.91-2.233 3.924-4.4 6.045-6.498C97.921 14.53 133.866 0 174.275 0c31.442 0 60.184 8.798 82.199 23.335a55.263 55.263 0 0 1 27.344-7.214c31.1 0 56.318 25.666 56.318 57.327a59.264 59.264 0 0 1-.318 5.998c15.213 10.808 24.234 28.371 24.182 47.079z" fill="#FF8284" opacity=".1"/><path d="M74 38v5h-5a78.624 78.624 0 0 1 5-5zm4-3h8v8h-8zm11 0h8v8h-8zm11 0h8v8h-8zm11 0h8v8h-8zm11 0h8v8h-8z" fill="#FF8284" opacity=".2"/><path fill="#FF8284" d="M133 35h8v8h-8z"/><path fill="#FF8284" opacity=".2" d="M144 35h8v8h-8zm12 0h8v8h-8zm10 0h8v8h-8z"/><path fill="#FF8284" d="M178 35h8v8h-8z"/><path fill="#FF8284" opacity=".2" d="M188 35h8v8h-8zm11 0h8v8h-8zm12 0h8v8h-8zm11 0h8v8h-8zm11 0h8v8h-8zm11 0h8v8h-8z"/><path fill="#FF8284" d="M255 35h8v8h-8zm11 0h8v8h-8z"/><path fill="#FF8284" opacity=".2" d="M277 35h8v8h-8zm11 0h8v8h-8z"/><path fill="#FF8284" d="M300 35h8v8h-8zm11 0h8v8h-8zM65 50v5h-4a96.625 96.625 0 0 1 4-5z"/><path fill="#FF8284" opacity=".2" d="M66 46h8v8h-8z"/><path fill="#FF8284" d="M78 46h8v8h-8z"/><path fill="#FF8284" opacity=".2" d="M89 46h8v8h-8z"/><path fill="#FF8284" opacity=".7" d="M100 46h8v8h-8z"/><path fill="#FF8284" opacity=".2" d="M111 46h8v8h-8z"/><path fill="#FF8284" opacity=".4" d="M122 46h8v8h-8z"/><path fill="#FF8284" d="M133 46h8v8h-8z"/><path fill="#FF8284" opacity=".4" d="M144 46h8v8h-8z"/><path fill="#FF8284" opacity=".2" d="M156 46h8v8h-8z"/><path fill="#FF8284" opacity=".4" d="M166 46h8v8h-8z"/><path fill="#FF8284" d="M178 46h8v8h-8z"/><path fill="#FF8284" opacity=".4" d="M188 46h8v8h-8zm11 0h8v8h-8z"/><path fill="#FF8284" opacity=".2" d="M211 46h8v8h-8z"/><path fill="#FF8284" opacity=".4" d="M222 46h8v8h-8zm11 0h8v8h-8z"/><path fill="#FF8284" opacity=".2" d="M244 46h8v8h-8zm11 0h8v8h-8z"/><path fill="#FF8284" opacity=".4" d="M266 46h8v8h-8z"/><path fill="#FF8284" opacity=".2" d="M277 46h8v8h-8z"/><path fill="#FF8284" d="M288 46h8v8h-8zm12 0h8v8h-8zm11 0h8v8h-8z"/><path d="M42 58v5h-8v-2.443A59.117 59.117 0 0 1 42 58zm10-2v7h-8v-5.961z" fill="#FF8284" opacity=".2"/><path fill="#FF8284" d="M55 55h8v8h-8z"/><path fill="#FF8284" opacity=".7" d="M66 55h8v8h-8z"/><path fill="#FF8284" d="M78 55h8v8h-8z"/><path fill="#FF8284" opacity=".7" d="M89 55h8v8h-8zm11 0h8v8h-8z"/><path fill="#FF8284" opacity=".2" d="M111 55h8v8h-8z"/><path fill="#FF8284" opacity=".4" d="M122 55h8v8h-8zm11 0h8v8h-8z"/><path fill="#FF8284" d="M144 55h8v8h-8z"/><path fill="#FF8284" opacity=".2" d="M156 55h8v8h-8z"/><path fill="#FF8284" opacity=".4" d="M166 55h8v8h-8z"/><path fill="#FF8284" d="M178 55h8v8h-8z"/><path fill="#FF8284" opacity=".2" d="M188 55h8v8h-8z"/><path fill="#FF8284" opacity=".4" d="M199 55h8v8h-8z"/><path fill="#FF8284" opacity=".2" d="M211 55h8v8h-8z"/><path fill="#FF8284" d="M222 55h8v8h-8z"/><path fill="#FF8284" opacity=".2" d="M233 55h8v8h-8z"/><path fill="#FF8284" opacity=".7" d="M244 55h8v8h-8zm11 0h8v8h-8z"/><path fill="#FF8284" opacity=".4" d="M266 55h8v8h-8z"/><path fill="#FF8284" opacity=".2" d="M277 55h8v8h-8z"/><path fill="#FF8284" d="M288 55h8v8h-8zm12 0h8v8h-8zm11 0h8v8h-8z"/><path fill="#FF8284" opacity=".2" d="M34 65h8v8h-8zm10 0h8v8h-8zm11 0h8v8h-8zm11 0h8v8h-8z"/><path fill="#FF8284" d="M78 65h8v8h-8z"/><path fill="#FF8284" opacity=".7" d="M89 65h8v8h-8zm11 0h8v8h-8z"/><path fill="#FF8284" opacity=".2" d="M111 65h8v8h-8zm11 0h8v8h-8z"/><path fill="#FF8284" opacity=".4" d="M133 65h8v8h-8zm11 0h8v8h-8z"/><path fill="#FF8284" d="M156 65h8v8h-8z"/><path fill="#FF8284" opacity=".2" d="M166 65h8v8h-8z"/><path fill="#FF8284" opacity=".4" d="M178 65h8v8h-8zm10 0h8v8h-8zm11 0h8v8h-8zm12 0h8v8h-8z"/><path fill="#FF8284" opacity=".2" d="M222 65h8v8h-8zm11 0h8v8h-8zm11 0h8v8h-8zm11 0h8v8h-8z"/><path fill="#FF8284" opacity=".7" d="M266 65h8v8h-8zm11 0h8v8h-8z"/><path fill="#FF8284" opacity=".4" d="M288 65h8v8h-8z"/><path fill="#FF8284" opacity=".2" d="M300 65h8v8h-8z"/><path fill="#FF8284" d="M311 65h8v8h-8z"/><path fill="#FF8284" opacity=".2" d="M34 76h8v8h-8zm10 0h8v8h-8z"/><path fill="#FF8284" opacity=".4" d="M55 76h8v8h-8z"/><path fill="#FF8284" opacity=".2" d="M66 76h8v8h-8zm12 0h8v8h-8z"/><path fill="#FF8284" opacity=".7" d="M89 76h8v8h-8zm11 0h8v8h-8z"/><path fill="#FF8284" opacity=".2" d="M111 76h8v8h-8zm11 0h8v8h-8z"/><path fill="#FF8284" opacity=".4" d="M133 76h8v8h-8z"/><path fill="#FF8284" d="M144 76h8v8h-8z"/><path fill="#FF8284" opacity=".2" d="M156 76h8v8h-8z"/><path fill="#FF8284" d="M166 76h8v8h-8zm12 0h8v8h-8zm10 0h8v8h-8z"/><path fill="#FF8284" opacity=".2" d="M199 76h8v8h-8z"/><path fill="#FF8284" d="M211 76h8v8h-8z"/><path fill="#FF8284" opacity=".2" d="M222 76h8v8h-8zm11 0h8v8h-8zm11 0h8v8h-8zm11 0h8v8h-8zm11 0h8v8h-8z"/><path fill="#FF8284" opacity=".7" d="M277 76h8v8h-8z"/><path fill="#FF8284" opacity=".2" d="M288 76h8v8h-8zm12 0h8v8h-8z"/><path fill="#FF8284" d="M311 76h8v8h-8z"/><path fill="#FF8284" opacity=".2" d="M34 87h8v8h-8zm10 0h8v8h-8zm11 0h8v8h-8z"/><path fill="#FF8284" opacity=".4" d="M66 87h8v8h-8z"/><path fill="#FF8284" opacity=".2" d="M78 87h8v8h-8zm11 0h8v8h-8z"/><path fill="#FF8284" opacity=".7" d="M100 87h8v8h-8z"/><path fill="#FF8284" opacity=".2" d="M111 87h8v8h-8zm11 0h8v8h-8zm11 0h8v8h-8z"/><path fill="#FF8284" d="M144 87h8v8h-8z"/><path fill="#FF8284" opacity=".2" d="M156 87h8v8h-8z"/><path fill="#FF8284" d="M166 87h8v8h-8zm12 0h8v8h-8z"/><path fill="#FF8284" opacity=".2" d="M188 87h8v8h-8zm11 0h8v8h-8zm12 0h8v8h-8zm11 0h8v8h-8zm11 0h8v8h-8zm11 0h8v8h-8zm11 0h8v8h-8zm11 0h8v8h-8zm11 0h8v8h-8zm11 0h8v8h-8z"/><path fill="#FF8284" opacity=".4" d="M300 87h8v8h-8z"/><path fill="#FF8284" d="M311 87h8v8h-8z"/><path fill="#FF8284" opacity=".7" d="M34 98h8v8h-8zm10 0h8v8h-8zm11 0h8v8h-8zm11 0h8v8h-8zm12 0h8v8h-8z"/><path fill="#FF8284" opacity=".2" d="M89 98h8v8h-8zm11 0h8v8h-8zm11 0h8v8h-8zm11 0h8v8h-8zm11 0h8v8h-8zm11 0h8v8h-8z"/><path fill="#FF8284" d="M156 98h8v8h-8z"/><path fill="#FF8284" opacity=".2" d="M166 98h8v8h-8zm12 0h8v8h-8zm10 0h8v8h-8z"/><path fill="#FF8284" d="M199 98h8v8h-8z"/><path fill="#FF8284" opacity=".2" d="M211 98h8v8h-8zm11 0h8v8h-8zm11 0h8v8h-8zm11 0h8v8h-8zm11 0h8v8h-8zm11 0h8v8h-8zm11 0h8v8h-8zm11 0h8v8h-8zm12 0h8v8h-8z"/><path fill="#FF8284" d="M311 98h8v8h-8z"/><circle fill="#767D9F" cx="234" cy="116" r="11"/><path d="M232.294 102.609a214.338 214.338 0 0 1 2.913 14.799c.24 1.476.453 3.034-.092 4.43-.457 1.164-1.388 2.073-2.118 3.092-.73 1.019-1.282 2.324-.838 3.491.444 1.168 1.74 1.806 2.975 2.135 3.538.935 7.31.255 10.83-.758a17.714 17.714 0 0 0 4.54-1.844c1.493-.929 2.716-2.218 3.84-3.547 5.133-6.103 8.493-13.428 11.656-20.709-4.123.368-8.175-1.232-10.886-4.3-1.295-1.494-2.245-3.573-1.515-5.398-2.14 1.151-4.682 1.228-6.987 2.015a25.05 25.05 0 0 0-4.11 1.983 254.966 254.966 0 0 0-4.695 2.728c-1.778 1.05-3.445 1.986-5.513 1.883z" fill="#AE6E79"/><path d="M256.515 109.263c-1.932 3.791-4.445 7.436-8.034 9.694-3.588 2.258-8.419 2.87-12.014.638-1.77-1.09-3.11-2.75-4.657-4.146-1.546-1.396-3.477-2.592-5.554-2.41-2.29.2-4.082 2.002-5.615 3.727-2.327 2.621-4.575 5.354-6.222 8.457-3.162 5.963-3.911 12.934-3.772 19.694.14 6.76 1.11 13.486 1.132 20.246.032 8.316-1.366 16.566-2.779 24.758 12.994-1.614 26.004 1.913 39.026 3.25 8.334.864 16.73.844 25.109.822 1.473 0 3.041-.038 4.268-.86a5.792 5.792 0 0 0 1.767-2.118c1.157-2.153 1.622-4.608 1.945-7.035.818-6.129.844-12.334.866-18.52.057-14.988.11-30.03-1.777-44.9-.465-3.657-1.06-7.333-2.45-10.755-1.391-3.422-3.661-6.569-6.835-8.403-2.04-1.18-6.766-3.233-9.169-2.044-2.697 1.327-3.942 7.367-5.235 9.905z" fill="#767D9F"/><path d="M256.806 151.984c-.498-9.21-2.529-19.04 1.793-27.215 1.062-2.007-2.748-4.513-1.57-6.456a29.04 29.04 0 0 0 3.236-7.6c.245-.918.441-1.89.21-2.811-.428-1.68-2.111-2.68-3.54-3.703-1.576-1.13-2.387-4.577-2.896-6.44-.508-1.865 4.045.38 5.876-.284 2.542-.917 5.772-.34 8.308.591 1.415.515 2.953.56 4.462.597 2.932.076 5.873.15 8.781-.206 1.307-.162 2.616-.407 3.929-.334 3.35.188 6.261 2.449 8.243 5.123 1.983 2.674 3.244 5.79 4.869 8.686 1.354 2.414 2.97 4.694 4.125 7.206 1.023 2.224 1.67 4.612 2.31 6.987l1.65 6.095c.29.872.426 1.786.406 2.703-.084.975-.521 1.883-.965 2.75a52.063 52.063 0 0 1-6.008 9.048c-3.471 4.202-7.686 7.99-9.749 13.022-.804 1.96-1.252 4.043-1.66 6.12A222.092 222.092 0 0 0 285.109 191a56.563 56.563 0 0 0-17.865-4.83c-1.798-.185-4.118.165-5.83-.318-2.864-.804-3.179-5.583-3.613-8.086-.695-3.986-.834-8.042-.86-12.069-.032-4.58.113-9.15-.135-13.713zm-62.671-16.669c1.372 7.67 2.883 15.363 5.865 22.57-.075.071-.15.135-.225.199-.264.22-.537.428-.824.64-.668.46-1.401.85-1.955 1.45-.21.23-.376.495-.49.783a1.72 1.72 0 0 0 0 1.429c-1.553.674-3.359.466-5.102.403-1.502-.055-2.959 0-4.164.808-1.675 1.132-2.18 3.305-2.45 5.28-.1.72-.186 1.442-.258 2.164a59.13 59.13 0 0 0-.231 8.732c.017.409.04.818.068 1.227-5.324-.125-10.176-2.848-14.768-5.494-1.049-.604-2.13-1.24-2.812-2.237a4.972 4.972 0 0 1-.752-3.29c0-.162.029-.319.052-.485a13.09 13.09 0 0 1 .746-2.774 34.123 34.123 0 0 1 6.253-10.436c1.167-1.336 2.48-2.643 3.024-4.32.238-.733.326-1.51.567-2.238 1.082-3.158 4.985-4.65 6.321-7.715.326-.732.476-1.535.88-2.238a5.673 5.673 0 0 1 1.385-1.518c.238-.195.486-.383.73-.572a96.33 96.33 0 0 0 6.618-5.577 71.23 71.23 0 0 0 1.173-1.106 18.656 18.656 0 0 0 .349 4.315z" fill="#4C4981"/><path d="M226.719 112.934c-.45.484-.935.94-1.412 1.391l-.128.118-.505.477a12.323 12.323 0 0 0-2.352 2.798l-.053.089c-1.59 2.905-1 6.482-.558 9.782.549 4.113.796 8.261.739 12.412-.081 5.728-.742 11.418-.754 17.14 0 1.298.028 2.593.084 3.892.09 2.11.246 4.216.433 6.323.202 2.31.445 4.618.673 6.925.18 1.785.352 3.567.495 5.35.072.923.14 1.842.197 2.765a103 103 0 0 1 .15 3.25c.021.687.033 1.37.033 2.058v1.168c0 .745-.02 1.487-.059 2.228a63.512 63.512 0 0 1-.19 2.864c-.096 1.04-.268 2.177-.985 2.909-.043.044-.09.086-.137.127l-1.01-.127a101.532 101.532 0 0 0-20.97-.382c.152-1.076.292-2.148.43-3.227a229.026 229.026 0 0 0 .58-5.2 206.043 206.043 0 0 0 .943-15.568c.036-1.426.052-2.853.05-4.28a252.4 252.4 0 0 0-.034-4.17c0-.458-.019-.916-.056-1.371a8.878 8.878 0 0 0-.165-1.219 16.096 16.096 0 0 0-.935-2.699c-.069-.165-.134-.318-.2-.493-.037-.086-.071-.175-.106-.26 1.795-1.633 3.073-3.82 4.3-5.97 1.992-3.466 4.03-7.085 4.363-11.088.334-4.004-1.614-8.5-5.36-9.722-1.018-.319-2.097-.408-3.147-.596-.99-.178-3.057-.582-4.203-1.307-.624.653-1.247 1.295-1.87 1.925a7.17 7.17 0 0 1 .676-2.772l.443.022a.88.88 0 0 1-.05-.318c0-.34.23-.726.723-1.152 1.467-1.273 3.776-1.556 4.702-3.278.386-.716.452-1.569.763-2.32.895-2.141 3.462-2.93 5.008-4.643 1.545-1.712 1.932-4.137 3.181-6.046a8.965 8.965 0 0 1 3.74-3.183c.124-.06.252-.12.38-.175 2.586-1.13 5.659-1.387 8.339-1.38 1.04 0 3.739.03 5.06.569.214.078.41.2.577.36 1.408 1.565-.783 4.872-1.823 6.004z" fill="#4C4981"/><path d="M195.132 127.81c5.11-1.472 10.624-.922 15.308 1.527 2.358 1.254 4.474 3.003 5.771 5.26 1.95 3.386 1.864 7.468 1.726 11.333-.068 1.934-.157 3.938-1.048 5.674-1.031 2.01-2.977 3.39-4.962 4.518a14.163 14.163 0 0 1-4.035 1.67c-2.2.458-4.487.07-6.704-.313-2.411-.426-4.999-.94-6.672-2.658-.983-.997-1.52-2.292-2.05-3.558a2085.04 2085.04 0 0 0-2.293-5.48c-1.327-3.17-1.776-5.806-.023-8.894.796-1.408 1.768-2.724 2.555-4.141.393-.721 1.8-4.753 2.427-4.938z" fill="#4C4981"/><path d="M329 183.061v9.67a52.278 52.278 0 0 1-20.552 4.14H222.82a2.669 2.669 0 0 1-.14.129l-1.028-.13H69.335c-12.78 0-24.623-3.512-34.335-9.494v-14.764L108.255 164h.057l42.66 3.68 11.04.97 5.734.495 11.868 1.026 6.106.527 8.89.77 1.25.106 6.408.553 8.693.728 12.224 1.054 20.378 1.763 14.335 1.238 23.54 2.034 4.477.385.482.042.42.036 5.911.51 6.49.564.753.064L329 183.061z" fill="#504F60"/><path fill="#9C9CA1" d="M243 182.885L150.583 167 147 185.247l42.363 5.108L202.407 192l35.882-7.117z"/><path d="M195 189.997l46.11-8.968c.466-.092.949.036 1.315.35.366.315.577.782.575 1.274.002.795-.546 1.479-1.302 1.623L196.668 193 195 189.997z" fill="#9C9CA1"/><path d="M215.587 163.023c1.424-.13 2.867-.351 4.148-.973 1.578-.775 2.806-2.11 4.268-3.092 3.213-2.177 7.513-2.47 11.196-1.22 3.684 1.251 6.759 3.93 8.911 7.127 1.43 2.13 2.504 4.849 1.493 7.2a9.474 9.474 0 0 1-1.3 2.003l-2.633 3.39a9.074 9.074 0 0 1-1.786 1.895c-.985.706-2.21.995-3.416 1.17-3.204.46-6.464.199-9.694.41-5.546.364-10.962 2.125-16.521 2.066-3.195-.035-6.348-.67-9.47-1.304l-13.816-2.8c-2.406-.484-5.124-1.194-6.257-3.343-.508-.967-.603-2.087-.663-3.176-.164-2.998 0-6.332 2.109-8.494 1.982-2.028 5.117-2.669 7.484-4.168 2.898-1.838 3.854-1.244 6.91.137a38.377 38.377 0 0 0 19.037 3.172z" fill="#AE6E79"/><path d="M215.587 163.023c1.424-.13 2.867-.351 4.148-.973 1.578-.775 2.806-2.11 4.268-3.092 3.213-2.177 7.513-2.47 11.196-1.22 3.684 1.251 6.759 3.93 8.911 7.127 1.43 2.13 2.504 4.849 1.493 7.2a9.474 9.474 0 0 1-1.3 2.003l-2.633 3.39a9.074 9.074 0 0 1-1.786 1.895c-.985.706-2.21.995-3.416 1.17-3.204.46-6.464.199-9.694.41-5.546.364-10.962 2.125-16.521 2.066-3.195-.035-6.348-.67-9.47-1.304l-13.816-2.8c-2.406-.484-5.124-1.194-6.257-3.343-.508-.967-.603-2.087-.663-3.176-.164-2.998 0-6.332 2.109-8.494 1.982-2.028 5.117-2.669 7.484-4.168 2.898-1.838 3.854-1.244 6.91.137a38.377 38.377 0 0 0 19.037 3.172z" fill="#000" opacity=".05"/><path d="M272.066 159.61c-3.892 1.495-7.806 2.995-11.882 3.886-6.833 1.494-13.983 1.258-20.762 2.966-3.582.906-7.141 2.366-10.82 2.07-1.645-.132-3.233-.629-4.834-1.006-8.991-2.203-19.213-1.488-26.515 4.175-2.497 1.934-4.541 4.347-6.396 6.92a4.597 4.597 0 0 0-.696 3.88 4.634 4.634 0 0 0 2.57 3.004 27.614 27.614 0 0 0 8.994 2.382c4.162.365 8.342-.22 12.481-.805 6.142-.866 12.288-1.734 18.414-2.706 2.2-.35 4.4-.711 6.611-.988 15.92-1.998 32.128.431 48.09-1.236 1.612-.17 3.254-.39 4.722-1.073 3.714-1.73 5.552-6.292 4.785-10.3-.767-4.008-3.727-7.34-7.29-9.385-2.985-1.72-6.205-2.416-9.53-3.146-3.087-.714-4.97.23-7.942 1.362z" fill="#AE6E79"/><path d="M306.039 135.544c1.735 2.306 2.105 5.4 1.917 8.287-.188 2.887-.865 5.742-.965 8.641-.138 3.977.808 7.94.648 11.904-.112 2.773-.76 5.491-1.528 8.153-.906 3.14-2.215 6.517-5.075 8.025-3.797 2.005-11.76.877-15.755 2.446.363-2.296 3.847-5.621 4.21-7.918.251-1.588.505-3.22.235-4.811-.344-2.03-1.519-3.83-2.913-5.33-2.218-2.385-5.113-4.18-8.292-4.764-3.18-.584-10.965-.104-13.509 1.931-.313-2.102 5.514-4.128 7.563-4.583 1.02-.231 2.193-.101 3.01-.759 1.567-1.245.43-3.725.505-5.716.06-1.588.974-3.043 1.159-4.631.313-2.54-1.322-5.13-.68-7.622.238-.921.767-1.731 1.134-2.608 1.115-2.684.626-5.745.031-8.597-.37-1.791-.73-3.811.254-5.339.912-1.426 3.5 3.652 5.156 3.417 5.473-.778 10.426-4.89 14.847-1.524 2.252 1.715 2.546 3.493 3.446 5.942.874 2.331 3.139 3.525 4.602 5.456z" fill="#000" opacity=".1"/><path d="M307.039 135.904c1.735 2.337 2.105 5.472 1.917 8.398-.188 2.926-.865 5.82-.965 8.758-.138 4.03.808 8.047.648 12.065-.112 2.81-.76 5.565-1.528 8.262-.906 3.184-2.215 6.606-5.075 8.134-3.797 2.032-11.76.889-15.755 2.479.363-2.327 3.847-5.697 4.21-8.025.251-1.61.505-3.264.235-4.876-.344-2.057-1.519-3.882-2.913-5.401-2.218-2.418-5.113-4.237-8.292-4.829-3.18-.592-10.965-.106-13.509 1.957-.313-2.13 5.514-4.184 7.563-4.645 1.02-.235 2.193-.103 3.01-.769 1.567-1.262.43-3.776.505-5.794.06-1.61.974-3.083 1.159-4.693.313-2.575-1.322-5.198-.68-7.725.238-.934.767-1.754 1.134-2.643 1.115-2.72.626-5.823.031-8.713-.37-1.816-.73-3.863.254-5.411.912-1.446 2.694-1.993 4.351-2.234 5.549-.771 11.171.719 15.664 4.152 2.252 1.738 2.547 3.54 3.446 6.023.862 2.362 3.127 3.573 4.59 5.53z" fill="#4C4981"/><path d="M96.14 118.724l17.274 63.86a3.988 3.988 0 0 0 3.466 2.926l77.753 7.472a3.984 3.984 0 0 0 4.251-4.92l-18.917-77.028a3.984 3.984 0 0 0-4.168-3.023l-76.123 5.695a3.984 3.984 0 0 0-3.537 5.018z" fill="#9C9CA1"/><circle fill="#FFF" cx="250.5" cy="123.5" r="8.5"/><path d="M257.18 107.145s1.795 5.7-3.502 8.096l-.678 1.264 3.319 3.495s4.09-7.967 3.647-10.796c0 0-.633-2.873-2.786-2.059z" fill="#FFF"/><circle fill="#FF8284" cx="251" cy="123" r="8"/><path d="M259.65 111l-1.457-2.086-2.122-.261c.452-6.87-1.602-8.916-1.602-8.916l-.478-.04-2.08-.175L248 96v-1c5.496.568 8.534 2.832 10.175 5.486 2.9 4.657 1.475 10.514 1.475 10.514z" fill="#FF8284"/><path d="M256 98.29V100l-1.736-.237L251 95s5.05 1.59 5 3.29zm3.61 12.71l-1.61-2.384V99c3.186 5.308 1.61 12 1.61 12z" stroke="#4C4981" fill="#000" opacity=".1"/><ellipse fill="#FFF" transform="rotate(-30 230.5 120.5)" cx="230.5" cy="120.5" rx="4.5" ry="8.5"/><path d="M233.166 119.482c2.368 3.993 5.273 6.66 3.026 7.93-2.247 1.268-8.793.634-11.16-3.363-2.368-3.996-.219-9.515 2.028-10.784 2.247-1.269 3.735 2.214 6.106 6.217z" fill="#FF8284"/><path d="M252 90.058C252 102.76 243.385 115 230.796 115 218.206 115 208 104.703 208 92s10.206-23 22.796-23c12.59.013 21.204 8.354 21.204 21.058z" fill="#000" opacity=".1"/><circle fill="#AE6E79" cx="232" cy="91" r="23"/><path d="M229.911 82.228c2.766 1.016 4.402 3.87 6.884 5.459 3.51 2.23 8.078 1.653 12.084.55 2.233-.607 4.569-1.35 6.767-.674.323.143.68.193 1.03.146.479-.137.715-.665.87-1.137 2.719-8.09 1.497-17.253-2.605-24.737-1.06-1.93-2.33-3.797-4.077-5.138-1.379-1.054-3-1.745-4.632-2.334a46.318 46.318 0 0 0-9.213-2.271 5.732 5.732 0 0 0-1.682-.054c-.768.124-1.457.538-2.143.908a21.969 21.969 0 0 1-9.526 2.583c-4.466.168-9.57-.883-13.012 1.977-4.148 3.43-3.114 10.122-5.803 14.779-1.78 3.08-5.213 5.315-5.778 8.822a8.131 8.131 0 0 0 .201 3.207c1.315 5.395 6.547 9.574 12.123 9.673a4.606 4.606 0 0 0 2.475-.507c.5-.34.94-.758 1.305-1.239 3.653-4.318 7.832-12.548 14.732-10.013z" fill="#444053"/><path d="M257.544 83.625c-.156.453-.392.96-.87 1.092a1.988 1.988 0 0 1-1.03-.14c-2.198-.65-4.546.063-6.762.648-4.01 1.058-8.586 1.624-12.082-.53-2.485-1.529-4.118-4.282-6.886-5.242-6.899-2.447-11.077 5.469-14.738 9.616a5.506 5.506 0 0 1-1.305 1.19 4.766 4.766 0 0 1-2.475.486c-5.556-.095-10.79-4.107-12.12-9.289a11.681 11.681 0 0 1-.185-.917c0 .027 0 .052-.016.08a7.51 7.51 0 0 0 .201 3.08c1.314 5.18 6.548 9.193 12.12 9.288a4.766 4.766 0 0 0 2.475-.486c.5-.327.94-.728 1.305-1.19 3.661-4.147 7.84-12.05 14.738-9.616 2.768.976 4.401 3.716 6.886 5.242 3.508 2.141 8.072 1.588 12.082.53 2.232-.585 4.564-1.297 6.761-.649.323.137.68.186 1.03.14.479-.13.715-.638.871-1.091A26.566 26.566 0 0 0 258.973 76a26.163 26.163 0 0 1-1.429 7.625z" fill="#000" opacity=".1"/></g></svg>